<svg width="7" height="14" viewBox="0 0 7 14" fill="none" xmlns="http://www.w3.org/2000/svg">
<path d="M1.79814 10.4277C1.66546 10.4277 1.55205 10.3816 1.45789 10.2894C1.36373 10.1972 1.31665 10.0847 1.31665 9.9518C1.31665 9.81889 1.36587 9.70314 1.46431 9.60453L4.05794 7.01286L1.46431 4.42119C1.36587 4.32258 1.31665 4.20683 1.31665 4.07392C1.31665 3.94101 1.36373 3.82847 1.45789 3.7363C1.55205 3.64412 1.66546 3.59803 1.79814 3.59803C1.92226 3.59803 2.03354 3.64305 2.13198 3.73308L5.05945 6.65273C5.16216 6.74705 5.21352 6.86709 5.21352 7.01286C5.21352 7.15005 5.16216 7.2701 5.05945 7.37299L2.13198 10.2926C2.0421 10.3827 1.93082 10.4277 1.79814 10.4277Z" fill="#0066CC"/>
</svg>
