<svg width="78" height="15" viewBox="0 0 78 15" fill="none" xmlns="http://www.w3.org/2000/svg">
<path d="M13.6669 14.5805V1.89492H21.588V3.59131H15.6359V7.60917H21.0862V9.27083H15.6359V14.5805H13.6669ZM22.9146 2.8881C22.9146 2.28212 23.4059 1.79769 24.0137 1.79769C24.6196 1.79769 25.1128 2.28212 25.1128 2.8881C25.1128 3.48539 24.6214 3.97851 24.0137 3.97851C23.4059 3.97851 22.9146 3.48713 22.9146 2.8881ZM23.0639 5.33284H24.9634V14.5805H23.0639V5.33284ZM29.655 3.14334V5.33284H31.4121V6.8365H29.655V11.9344C29.655 12.7348 30.0057 13.0942 30.7801 13.0942C30.9729 13.0942 31.2819 13.0769 31.4035 13.0508V14.5545C31.1934 14.6066 30.7714 14.643 30.3478 14.643C28.476 14.643 27.745 13.9311 27.745 12.1462V6.8365H26.3994V5.33284H27.745V3.14334H29.655ZM33.0061 5.33284H34.8171V6.87991H34.8605C35.3623 5.82422 36.3468 5.17484 37.7706 5.17484C39.8107 5.17484 40.9793 6.47535 40.9793 8.59366V14.5805H39.0711V8.9635C39.0711 7.57444 38.42 6.81046 37.1021 6.81046C35.7651 6.81046 34.9039 7.76023 34.9039 9.19269V14.5822H33.0044V5.33284H33.0061ZM50.5586 11.8632C50.2947 13.5509 48.6955 14.7559 46.5772 14.7559C43.8616 14.7559 42.2173 12.9188 42.2173 10.0001C42.2173 7.09869 43.8876 5.16442 46.4991 5.16442C49.0654 5.16442 50.6662 6.97541 50.6662 9.77957V10.4307H44.1342V10.5453C44.1342 12.1531 45.1013 13.2175 46.6223 13.2175C47.7041 13.2175 48.5045 12.6723 48.758 11.8632H50.5586ZM44.1411 9.10414H48.765C48.7216 7.68904 47.8239 6.69586 46.4973 6.69586C45.169 6.69586 44.2366 7.7064 44.1411 9.10414ZM55.5158 5.16616C57.6688 5.16616 59.0666 6.36248 59.1291 8.06756H57.3442C57.2382 7.17161 56.5802 6.60904 55.5158 6.60904C54.4879 6.60904 53.802 7.11084 53.802 7.84878C53.802 8.42871 54.224 8.82459 55.2258 9.05379L56.7295 9.39584C58.6203 9.83513 59.3409 10.5731 59.3409 11.91C59.3409 13.5978 57.7678 14.7576 55.587 14.7576C53.2742 14.7576 51.8851 13.6238 51.7098 11.8649H53.5902C53.7656 12.832 54.4254 13.306 55.5853 13.306C56.7278 13.306 57.431 12.832 57.431 12.075C57.431 11.4777 57.0889 11.1252 56.0766 10.896L54.573 10.5453C52.8141 10.1407 51.9442 9.29687 51.9442 7.95122C51.9477 6.29998 53.3888 5.16616 55.5158 5.16616ZM64.1037 5.16616C66.2567 5.16616 67.6545 6.36248 67.717 8.06756H65.932C65.8261 7.17161 65.168 6.60904 64.1037 6.60904C63.0758 6.60904 62.3899 7.11084 62.3899 7.84878C62.3899 8.42871 62.8118 8.82459 63.8137 9.05379L65.3174 9.39584C67.2082 9.83513 67.9288 10.5731 67.9288 11.91C67.9288 13.5978 66.3557 14.7576 64.1749 14.7576C61.8621 14.7576 60.473 13.6238 60.2976 11.8649H62.1781C62.3534 12.832 63.0133 13.306 64.1731 13.306C65.3156 13.306 66.0188 12.832 66.0188 12.075C66.0188 11.4777 65.6768 11.1252 64.6645 10.896L63.1608 10.5453C61.4019 10.1407 60.532 9.29687 60.532 7.95122C60.5338 6.29998 61.9767 5.16616 64.1037 5.16616ZM74.3462 14.5927H72.6151V10.8248H69.0279V9.11109H72.6151V5.345H74.3462V9.11109H77.9422V10.8248H74.3462V14.5927ZM7.63664 3.13466C8.1176 2.55299 8.44056 1.74386 8.35201 0.939941C7.66095 0.967723 6.82404 1.40007 6.32745 1.98174C5.88295 2.49569 5.49228 3.32044 5.5982 4.10873C6.36912 4.16777 7.15742 3.71633 7.63664 3.13466ZM8.33464 4.26153C7.20256 4.17819 6.24237 4.89355 5.70758 4.89355C5.16411 4.89355 4.32547 4.27889 3.43821 4.29626C2.2714 4.31362 1.19661 4.97516 0.594107 6.02043C-0.617848 8.12312 0.285041 11.2398 1.46574 12.9466C2.04394 13.7801 2.73152 14.7212 3.63615 14.6864C4.50605 14.6517 4.83595 14.1239 5.88816 14.1239C6.94037 14.1239 7.23729 14.6864 8.15754 14.6708C9.09515 14.6534 9.68898 13.82 10.262 12.9814C10.9252 12.0142 11.1978 11.0766 11.2135 11.0263C11.1926 11.0176 9.38686 10.3248 9.36949 8.24466C9.35387 6.50486 10.7898 5.66969 10.8541 5.62802C10.038 4.42648 8.77914 4.29452 8.33464 4.26153Z" fill="white"/>
</svg>
