<svg width="68" height="15" viewBox="0 0 68 15" fill="none" xmlns="http://www.w3.org/2000/svg">
<path d="M20.7098 11.1211H15.8198L14.6469 14.5897H12.5749L17.2069 1.7585H19.3578L23.9898 14.5897H21.8828L20.7098 11.1211ZM16.3272 9.52113H20.2024L18.2903 3.89235H18.2376L16.3272 9.52113ZM25.0819 5.23412H26.9133V6.82529H26.9572C27.268 5.73114 28.1038 5.08309 29.2065 5.08309C29.4821 5.08309 29.7227 5.12699 29.8649 5.15509V6.94296C29.7139 6.88149 29.3768 6.83582 29.0028 6.83582C27.7667 6.83582 27.0029 7.66302 27.0029 8.98723V14.5897H25.0819V5.23412ZM36.8884 8.45333C36.6935 7.45754 35.9455 6.66547 34.6935 6.66547C33.2081 6.66547 32.2318 7.90187 32.2318 9.91102C32.2318 11.9658 33.2186 13.1566 34.7129 13.1566C35.8945 13.1566 36.6689 12.5068 36.8901 11.4231H38.739C38.5336 13.4147 36.9428 14.767 34.6935 14.767C32.0176 14.767 30.2758 12.9353 30.2758 9.91277C30.2758 6.94296 32.0176 5.06728 34.676 5.06728C37.085 5.06728 38.5512 6.61454 38.7215 8.45509L36.8884 8.45333ZM39.7258 11.9307C39.7258 10.2939 40.9795 9.28931 43.2024 9.16461L45.7625 9.01357V8.29351C45.7625 7.25381 45.0601 6.63034 43.8872 6.63034C42.7758 6.63034 42.0822 7.16424 41.9136 8.00022H40.0998C40.2069 6.31071 41.6468 5.06552 43.9575 5.06552C46.2243 5.06552 47.6729 6.26504 47.6729 8.14247V14.5897H45.8327V13.0512H45.7888C45.2463 14.0909 44.0646 14.7495 42.8372 14.7495C41.0059 14.7495 39.7258 13.6114 39.7258 11.9307ZM45.7625 11.0859V10.3483L43.4606 10.4906C42.314 10.5714 41.6643 11.0772 41.6643 11.878C41.6643 12.6964 42.3403 13.2303 43.371 13.2303C44.7125 13.2286 45.7625 12.3048 45.7625 11.0859ZM49.0231 9.91277C49.0231 6.96052 50.5876 5.08484 52.9352 5.08484C54.2767 5.08484 55.3442 5.761 55.8692 6.79192H55.9044V1.7585H57.834V14.5897H55.9658V12.9985H55.9307C55.3794 14.0645 54.3135 14.7495 52.9528 14.7495C50.5876 14.7495 49.0231 12.8633 49.0231 9.91277ZM50.9879 9.91277C50.9879 11.8868 51.9396 13.1232 53.4602 13.1232C54.9351 13.1232 55.9219 11.8692 55.9219 9.91277C55.9219 7.97387 54.9351 6.70235 53.4602 6.70235C51.9396 6.70235 50.9879 7.94753 50.9879 9.91277ZM67.6528 11.8411C67.3859 13.5482 65.7688 14.767 63.6266 14.767C60.8805 14.767 59.2177 12.9089 59.2177 9.95668C59.2177 7.02199 60.9068 5.06552 63.5476 5.06552C66.1428 5.06552 67.7617 6.89729 67.7617 9.73364V10.3922H61.1561V10.5081C61.1561 12.1344 62.1342 13.211 63.6723 13.211C64.7662 13.211 65.5739 12.6595 65.832 11.8411C65.8302 11.8411 67.6528 11.8411 67.6528 11.8411ZM61.1632 9.0487H65.839C65.7951 7.61736 64.8873 6.61278 63.5459 6.61278C62.2044 6.61278 61.2615 7.63492 61.1632 9.0487ZM7.727 3.01071C8.20635 2.41007 8.53294 1.60395 8.4469 0.780273C7.74456 0.815398 6.8877 1.24392 6.39079 1.84456C5.9448 2.35914 5.55149 3.19863 5.65333 3.98894C6.44171 4.05744 7.23009 3.59379 7.727 3.01071ZM8.43812 4.14174C7.2933 4.07324 6.3188 4.79155 5.77273 4.79155C5.2249 4.79155 4.38735 4.1751 3.48308 4.19267C2.3049 4.21023 1.21099 4.87585 0.612245 5.93662C-0.618615 8.05817 0.287411 11.2054 1.48491 12.9318C2.0661 13.7871 2.76669 14.7284 3.68852 14.6933C4.56118 14.6599 4.90182 14.1278 5.96236 14.1278C7.02114 14.1278 7.32842 14.6933 8.252 14.6757C9.20895 14.6582 9.8077 13.8204 10.3889 12.9651C11.0561 11.9904 11.3283 11.0491 11.3458 10.9981C11.3283 10.9806 9.50042 10.2798 9.48286 8.17584C9.4653 6.41432 10.9192 5.57659 10.9859 5.52391C10.1641 4.31385 8.88236 4.17686 8.43812 4.14174Z" fill="white"/>
</svg>
